<svg xmlns="http://www.w3.org/2000/svg" width="29" height="29">
  <path d="M14.185 28.37C6.351 28.37 0 22.02 0 14.186 0 6.351 6.351 0 14.185 0c7.835 0 14.186 6.351 14.186 14.185 0 7.835-6.351 14.186-14.186 14.186zm0-11.905a2.28 2.28 0 1 0 0-4.56 2.28 2.28 0 0 0 0 4.56zm5.447-4.306a3.42 3.42 0 1 0 0-6.84 3.42 3.42 0 0 0 0 6.84zm0 10.892a3.42 3.42 0 1 0 0-6.84 3.42 3.42 0 0 0 0 6.84zM8.739 12.16a3.42 3.42 0 1 0 0-6.84 3.42 3.42 0 0 0 0 6.84zm0 10.892a3.42 3.42 0 1 0 0-6.84 3.42 3.42 0 0 0 0 6.84z" fill="#565C67" fill-rule="evenodd"/>
</svg>